<svg width="44" height="44" viewBox="0 0 44 44" fill="none" xmlns="http://www.w3.org/2000/svg">
<path d="M43.5265 21.2222L41.3731 12.5811C40.219 7.96325 36.6621 4.28018 32.0902 2.9691L23.5309 0.514687C18.9547 -0.797471 13.986 0.441747 10.5642 3.74758L4.15649 9.93309C2.47122 11.5623 1.23935 13.6124 0.593849 15.8622C-0.0509379 18.1123 -0.092514 20.5036 0.47378 22.7792L2.62964 31.4177C3.77979 36.0359 7.33705 39.7196 11.9126 41.0316L20.4719 43.486C21.6779 43.8317 22.9105 44 24.1359 44C27.557 44 30.916 42.6866 33.4393 40.2526L39.8434 34.0667C41.5287 32.4376 42.7606 30.3874 43.4061 28.1377C44.0508 25.8879 44.0924 23.4966 43.5265 21.2222ZM26.3509 23.2415L26.3438 23.267C25.6499 25.6515 23.1417 27.0352 20.7529 26.3494C18.364 25.6644 16.9698 23.1627 17.6504 20.7529C17.9837 19.5904 18.7497 18.6277 19.8066 18.042C20.4869 17.665 21.2356 17.4731 21.9926 17.4731C22.4116 17.4731 22.8334 17.532 23.2474 17.6506C24.409 17.9838 25.3717 18.7492 25.9577 19.8058C26.5387 20.8538 26.6803 22.0643 26.3509 23.2415Z" fill="#1A1A1B"/>
<path d="M40.9361 27.4299C40.4226 29.2206 39.4428 30.8808 38.0579 32.2196L31.6543 38.4048C28.8776 41.0835 24.8862 42.0791 21.1802 41.0164L12.6208 38.562C8.91188 37.4985 6.05458 34.539 5.12229 30.7968L2.96649 22.1572C2.50141 20.288 2.55027 18.3608 3.06376 16.5701C4.20818 16.8982 5.22465 17.6614 5.84636 18.783C7.09063 21.0232 9.91608 21.8334 12.1584 20.5929C13.1122 20.0643 14.1715 19.906 15.1724 20.0743C14.1118 23.829 16.2882 27.7419 20.0446 28.819C23.801 29.8962 27.7202 27.7312 28.8105 23.985C29.7485 24.3727 30.5638 25.0653 31.0946 26.0228C32.3359 28.2622 35.1643 29.0732 37.4037 27.8319C38.5253 27.2102 39.7947 27.1026 40.9361 27.4299Z" fill="#C4792D"/>
<path d="M37.4037 27.8319C37.3265 27.8747 37.2471 27.9092 37.1686 27.9471C36.7158 28.8804 36.1018 29.7435 35.3338 30.4859L30.0165 35.6218C27.7109 37.8461 24.3966 38.6728 21.3193 37.7904L14.212 35.7524C11.1322 34.8692 8.7596 32.4119 7.98547 29.3045L6.19538 22.1305C5.93745 21.0939 5.87413 20.0364 5.98472 19.0049C5.93824 18.9312 5.88919 18.86 5.84636 18.7829C5.22466 17.6614 4.20819 16.8982 3.06376 16.5701C2.55027 18.3608 2.5014 20.288 2.9665 22.1572L5.1223 30.7968C6.05458 34.539 8.91188 37.4985 12.6208 38.562L21.1802 41.0164C24.8862 42.0791 28.8776 41.0835 31.6543 38.4048L38.0579 32.2196C39.4428 30.8808 40.4226 29.2206 40.9361 27.4299C39.7947 27.1026 38.5253 27.2102 37.4037 27.8319Z" fill="#A05624"/>
<path d="M19.2241 31.6806C24.0932 33.0767 29.1532 30.6347 31.1747 26.1514C31.1487 26.1079 31.1194 26.0675 31.0946 26.0228C30.5638 25.0653 29.7485 24.3727 28.8105 23.9849C27.7203 27.7312 23.801 29.8961 20.0446 28.819C16.2882 27.7419 14.1118 23.829 15.1724 20.0743C14.1715 19.906 13.1122 20.0642 12.1584 20.5929C12.1127 20.6182 12.0653 20.6375 12.0191 20.6611C11.359 25.5335 14.3558 30.2846 19.2241 31.6806Z" fill="#A05624"/>
<path d="M37.4038 27.8319C37.3265 27.8747 37.2472 27.9092 37.1687 27.9471C36.7159 28.8804 36.1018 29.7435 35.3338 30.4859L30.0165 35.6218C29.2099 36.4 28.2799 37.007 27.2797 37.4297C26.5268 37.7479 26.1383 38.5885 26.3361 39.3816C26.5853 40.3811 27.6805 40.8939 28.6184 40.4681C29.7242 39.9661 30.7532 39.2741 31.6543 38.4048L38.0579 32.2196C39.4429 30.8808 40.4227 29.2206 40.9362 27.4299C39.7947 27.1026 38.5253 27.2102 37.4038 27.8319Z" fill="#F2C782"/>
<path d="M24.0464 30.1983C23.8716 29.4971 23.2194 29.0204 22.4986 29.0732C21.6938 29.1322 20.8658 29.0545 20.0446 28.819C16.2882 27.7419 14.1118 23.829 15.1724 20.0743C14.1715 19.906 13.1122 20.0642 12.1584 20.5929C12.1127 20.6182 12.0653 20.6375 12.0191 20.6611C11.359 25.5335 14.3558 30.2846 19.2241 31.6806C20.401 32.018 21.5888 32.1303 22.7422 32.044C23.6512 31.9759 24.2669 31.0828 24.0464 30.1983V30.1983V30.1983Z" fill="#F2C782"/>
<path d="M37.4038 27.8319C35.1644 29.0732 32.336 28.2622 31.0947 26.0228C30.5639 25.0653 29.7486 24.3727 28.8106 23.9849C28.5309 24.946 28.0628 25.8008 27.4612 26.5257L27.8476 26.6365C28.1009 26.7613 28.4115 26.9869 28.633 27.3871C29.5981 29.1276 31.1842 30.3886 33.0991 30.9377C34.4454 31.3238 35.8312 31.2923 37.1541 30.9573C38.777 30.5464 40.3293 29.0759 40.5449 28.5528C40.6962 28.1857 40.827 27.8108 40.9362 27.4299C39.7948 27.1026 38.5254 27.2102 37.4038 27.8319Z" fill="#773A11"/>
<path d="M13.5226 23.0542C14.5353 22.4974 14.8832 21.6014 14.9888 20.9179C15.0322 20.6367 15.0931 20.3551 15.1725 20.0743C14.1715 19.906 13.1122 20.0642 12.1585 20.5929C9.91615 21.8334 7.09067 21.0232 5.84641 18.7829C5.22471 17.6614 4.20824 16.8982 3.06382 16.5701C2.79888 17.494 2.6602 18.4544 2.64941 19.4243C2.95686 19.5887 3.21264 19.836 3.38627 20.1491C5.3801 23.7395 9.92149 25.0342 13.5226 23.0542Z" fill="#773A11"/>
<path d="M35.9981 28.3331C34.0903 28.6853 32.0862 27.8117 31.0946 26.0228C30.5638 25.0653 29.7485 24.3727 28.8105 23.9849C28.4589 24.4717 28.1795 24.998 27.9258 25.5259C30.4967 25.6562 30.7951 29.4013 35.9981 28.3331Z" fill="#1A1A1B"/>
<path d="M10.8106 21.0846C8.8844 21.4656 6.85052 20.5909 5.84636 18.7829C5.22466 17.6614 4.20818 16.8982 3.06376 16.5701C2.69153 17.0352 2.48824 17.5487 2.45007 18.1047C4.40724 18.0532 6.26732 22.5205 10.8106 21.0846Z" fill="#1A1A1B"/>
<path d="M41.0335 21.8427C41.4986 23.712 41.4497 25.6391 40.9362 27.4299C39.7948 27.1026 38.5254 27.2102 37.4038 27.8319C35.1644 29.0732 32.336 28.2622 31.0947 26.0228C30.5639 25.0653 29.7486 24.3727 28.8106 23.985C28.8131 23.9761 28.8165 23.9642 28.8191 23.9553C29.8996 20.187 27.7207 16.2606 23.9554 15.1809C20.1901 14.1012 16.2615 16.2764 15.181 20.0446C15.1784 20.0535 15.175 20.0654 15.1725 20.0743C14.1715 19.906 13.1122 20.0643 12.1585 20.5929C9.91616 21.8334 7.09071 21.0232 5.84644 18.783C5.22473 17.6614 4.20826 16.8982 3.06384 16.5701C3.57733 14.7793 4.55715 13.1191 5.9421 11.7804L12.3486 5.596C15.1224 2.91647 19.1137 1.92086 22.8227 2.9844L31.3821 5.43878C35.0881 6.50146 37.9454 9.46091 38.8807 13.204L41.0335 21.8427Z" fill="#FB1996"/>
<path d="M41.0335 21.8427L38.8806 13.204C37.9454 9.4609 35.0881 6.50145 31.3821 5.43877L22.8227 2.98438C19.1137 1.92084 15.1223 2.91645 12.3486 5.59599L5.9421 11.7804C4.55714 13.1191 3.57733 14.7793 3.06384 16.5701C4.20826 16.8982 5.22474 17.6614 5.84644 18.7829C5.88926 18.86 5.93832 18.9312 5.9848 19.0049C6.03981 18.492 6.13463 17.985 6.27623 17.4912C6.70261 16.0042 7.5162 14.6257 8.66621 13.514L13.9859 8.3788C16.2891 6.15384 19.6034 5.32713 22.6832 6.21025L29.7905 8.24826C32.8678 9.13066 35.2404 11.5881 36.017 14.6961L37.8046 21.8694C38.1908 23.4215 38.1502 25.0218 37.7238 26.5087C37.5822 27.0026 37.3939 27.4829 37.1687 27.9471C37.2472 27.9092 37.3266 27.8747 37.4038 27.8319C38.5254 27.2102 39.7948 27.1026 40.9362 27.4299C41.4497 25.6391 41.4986 23.7119 41.0335 21.8427Z" fill="#AF026D"/>
<path d="M41.0335 21.8427L38.8806 13.204C37.9454 9.46091 35.0881 6.50146 31.3821 5.43877L22.8227 2.98439C21.6472 2.6473 20.4433 2.51709 19.2588 2.58178C18.1861 2.64036 17.4292 3.65781 17.6891 4.70016L17.6891 4.70016C17.8828 5.47698 18.6205 5.96891 19.418 5.89792C20.4995 5.80164 21.6057 5.90128 22.6831 6.21025L29.7905 8.24826C32.8678 9.13066 35.2403 11.5881 36.017 14.6961L37.8046 21.8694C38.1908 23.4215 38.1502 25.0218 37.7238 26.5087C37.5822 27.0026 37.1687 27.947 37.1848 27.9611C38.3581 27.2262 39.7198 27.0811 40.9362 27.4299C41.4497 25.6391 41.4986 23.7119 41.0335 21.8427Z" fill="#FFB6DE"/>
<path d="M31.6806 24.7758C33.2145 19.4263 30.1212 13.8521 24.7758 12.3193C19.4304 10.7866 13.8533 13.8745 12.3193 19.2241C12.3157 19.2367 12.3109 19.2535 12.3073 19.2662C12.1761 19.7304 12.082 20.1962 12.019 20.6611C12.0653 20.6374 12.1127 20.6182 12.1584 20.5929C13.1122 20.0642 14.1715 19.906 15.1724 20.0743C15.1749 20.0654 15.1783 20.0535 15.1809 20.0446C16.2614 16.2764 20.19 14.1012 23.9553 15.1809C27.7206 16.2606 29.8995 20.187 28.819 23.9553C28.8164 23.9642 28.813 23.9761 28.8105 23.9849C29.7485 24.3727 30.5638 25.0653 31.0946 26.0228C31.1194 26.0675 31.1486 26.1079 31.1747 26.1514C31.3672 25.7245 31.5339 25.2803 31.6685 24.818C31.6721 24.8053 31.6769 24.7885 31.6806 24.7758Z" fill="#AF026D"/>
<path d="M19.955 13.7886C19.7346 12.9047 18.7857 12.4156 17.9629 12.7759C15.3127 13.9365 13.1798 16.2236 12.3194 19.2241C12.3157 19.2367 12.3109 19.2535 12.3073 19.2662C12.1761 19.7304 12.082 20.1964 12.019 20.6612C12.0252 20.6651 12.0226 20.6635 12.0288 20.6675C13.0156 20.0793 14.1259 19.8983 15.1724 20.0743C15.1725 20.0742 15.1725 20.0742 15.1725 20.0742C15.77 17.9565 17.2669 16.3429 19.1298 15.5188C19.7766 15.2327 20.1433 14.5437 19.9722 13.8575L19.955 13.7886Z" fill="#FFB6DE"/>
<path d="M9.03953 15.8293C10.7918 15.8293 12.2124 14.4088 12.2124 12.6565C12.2124 10.9042 10.7918 9.48367 9.03953 9.48367C7.28723 9.48367 5.8667 10.9042 5.8667 12.6565C5.8667 14.4088 7.28723 15.8293 9.03953 15.8293Z" fill="white"/>
<path d="M9.0396 16.5093C6.91492 16.5093 5.18665 14.781 5.18665 12.6565C5.18665 10.532 6.91492 8.80373 9.0396 8.80373C11.1639 8.80373 12.8922 10.532 12.8922 12.6565C12.8922 14.781 11.1639 16.5093 9.0396 16.5093ZM9.0396 10.1636C7.66472 10.1636 6.54647 11.2818 6.54647 12.6565C6.54647 14.0312 7.66472 15.1494 9.0396 15.1494C10.4141 15.1494 11.5324 14.0312 11.5324 12.6565C11.5324 11.2818 10.4141 10.1636 9.0396 10.1636Z" fill="#606063"/>
<path d="M38.125 25.2956C40.2935 25.2956 42.0515 23.5377 42.0515 21.3692C42.0515 19.2007 40.2935 17.4428 38.125 17.4428C35.9565 17.4428 34.1986 19.2007 34.1986 21.3692C34.1986 23.5377 35.9565 25.2956 38.125 25.2956Z" fill="#48F7B3"/>
<path d="M38.1253 25.9755C35.5852 25.9755 33.5189 23.9091 33.5189 21.3692C33.5189 18.8293 35.5852 16.7629 38.1253 16.7629C40.6653 16.7629 42.7316 18.8293 42.7316 21.3692C42.7316 23.9091 40.6653 25.9755 38.1253 25.9755ZM38.1253 18.1227C36.335 18.1227 34.8787 19.5791 34.8787 21.3692C34.8787 23.1593 36.335 24.6157 38.1253 24.6157C39.9155 24.6157 41.3718 23.1593 41.3718 21.3692C41.3718 19.5791 39.9155 18.1227 38.1253 18.1227Z" fill="#037546"/>
<path d="M19.0989 8.68661C21.2674 8.68661 23.0253 6.92869 23.0253 4.76018C23.0253 2.59168 21.2674 0.833752 19.0989 0.833752C16.9304 0.833752 15.1725 2.59168 15.1725 4.76018C15.1725 6.92869 16.9304 8.68661 19.0989 8.68661Z" fill="#FFE02C"/>
<path d="M19.0988 9.36662C16.5587 9.36662 14.4924 7.30018 14.4924 4.7601C14.4924 2.2202 16.5587 0.153759 19.0988 0.153759C21.6389 0.153759 23.7051 2.2202 23.7051 4.7601C23.7051 7.30018 21.6389 9.36662 19.0988 9.36662ZM19.0988 1.51359C17.3085 1.51359 15.8523 2.97 15.8523 4.7601C15.8523 6.55038 17.3085 8.0068 19.0988 8.0068C20.889 8.0068 22.3453 6.55038 22.3453 4.7601C22.3453 2.97 20.889 1.51359 19.0988 1.51359Z" fill="#A05000"/>
<path d="M27.9259 17.1904C29.6782 17.1904 31.0987 15.7699 31.0987 14.0175C31.0987 12.2652 29.6782 10.8447 27.9259 10.8447C26.1736 10.8447 24.7531 12.2652 24.7531 14.0175C24.7531 15.7699 26.1736 17.1904 27.9259 17.1904Z" fill="#31A2FF"/>
<path d="M27.9258 17.8703C25.8015 17.8703 24.0732 16.1421 24.0732 14.0176C24.0732 11.8931 25.8015 10.1648 27.9258 10.1648C30.0502 10.1648 31.7784 11.8931 31.7784 14.0176C31.7784 16.1421 30.0502 17.8703 27.9258 17.8703ZM27.9258 11.5246C26.5513 11.5246 25.4331 12.6429 25.4331 14.0176C25.4331 15.3923 26.5513 16.5105 27.9258 16.5105C29.3004 16.5105 30.4186 15.3923 30.4186 14.0176C30.4186 12.6429 29.3004 11.5246 27.9258 11.5246Z" fill="#1F47AA"/>
</svg>
