<svg width="400" height="400" xmlns="http://www.w3.org/2000/svg">

 <metadata id="metadata5">image/svg+xml</metadata>
 <g>
  <title>background</title>
  <rect fill="none" id="canvas_background" height="402" width="402" y="-1" x="-1"/>
 </g>
 <g>
  <title>Layer 1</title>
  <g stroke="null" id="layer1">
   <polygon stroke="null" fill="#3c3c3b" id="polygon236" points="258.03485107421875,174.09903013706207 203.1915740966797,206.48153746128082 202.51683044433594,207.3037725687027 202.51683044433594,249.36611998081207 203.1915740966797,251.3366857767105 "/>
   <polygon stroke="null" fill="#8c8c8c" id="polygon238" points="148.38099670410156,174.09826719760895 203.1915740966797,251.3363653421402 203.1915740966797,206.48074400424957 "/>
   <g stroke="null" transform="matrix(6.573674363571254,0,0,6.573674363571254,-3178.263587639914,259.4288891485943) " id="g170">
    <g stroke="null" id="g111">
     <path stroke="null" fill="#eeaf4b" d="m542.408809,-13.280437c0,-11.046 -12.76,-20 -28.5,-20c-15.74,0 -28.5,8.954 -28.5,20l0,8.996c0,0.001 0,0.003 0,0.004c0,11.046 12.76,20 28.5,20c15.74,0 28.5,-8.954 28.5,-20c0,-0.001 0,-0.003 0,-0.004l0,-8.996zm-28,5c-5.523,0 -10,-2.686 -10,-6c0,-3.314 4.477,-6 10,-6c5.523,0 10,2.686 10,6c0,3.313 -4.477,6 -10,6z" id="path103"/>
     <g stroke="null" id="g107">
      <path stroke="null" fill="#fbd490" d="m514.408809,-14.478437c3.591,0 6.894,0.719 9.565,1.918c0.274,-0.545 0.435,-1.119 0.435,-1.718c0,-3.314 -4.477,-6 -10,-6c-5.523,0 -10,2.686 -10,6c0,0.599 0.161,1.173 0.435,1.718c2.67,-1.199 5.973,-1.918 9.565,-1.918z" id="path105"/>
     </g>
     <path stroke="null" fill="#e6e6e6" d="m543.018809,-15.446437c-1.807,-10.346 -14.269,-18.354 -29.284,-18.354c-14.382,0 -26.291,7.348 -28.839,17.06c-0.537,2.046 0.387,4.17 2.185,5.344c1.427,0.932 1.098,8.05 1.476,9.576c0.256,1.036 1.037,1.894 2.101,2.135c1.569,0.356 5.539,-0.348 6.289,2.386c0.112,0.409 0.225,0.801 0.277,1.193c0.126,0.944 1.101,1.53 1.985,1.129c0.883,-0.4 2.417,-2.398 4.06,-2.655c5.676,-0.887 2.961,4.401 4.204,6.212c0.652,0.95 1.894,1.235 2.942,0.725c0.926,-0.45 1.097,-2.862 3.074,-2.83c2.522,0.041 1.991,2.343 2.863,2.732c1.143,0.509 2.539,0.209 3.269,-0.789c1.256,-1.719 2.354,-5.801 4.667,-6.049c2.989,-0.321 3.625,2.312 4.586,2.808c0.815,0.421 1.783,-0.052 1.904,-0.945c0.275,-2.027 0.866,-5.937 6.121,-4.405c0.772,0.225 1.351,-0.801 1.549,-1.564c0.665,-2.561 1.245,-9.124 2.952,-10.14c1.247,-0.743 1.865,-2.162 1.619,-3.569zm-28.61,7.166c-5.523,0 -10,-2.686 -10,-6c0,-3.314 4.477,-6 10,-6c5.523,0 10,2.686 10,6c0,3.313 -4.477,6 -10,6z" id="path109"/>
    </g>
    <g stroke="null" id="g113"/>
    <g stroke="null" id="g115"/>
    <g stroke="null" id="g117"/>
    <g stroke="null" id="g119"/>
    <g stroke="null" id="g121"/>
    <g stroke="null" id="g123"/>
    <g stroke="null" id="g125"/>
    <g stroke="null" id="g127"/>
    <g stroke="null" id="g129"/>
    <g stroke="null" id="g131"/>
    <g stroke="null" id="g133"/>
    <g stroke="null" id="g135"/>
    <g stroke="null" id="g137"/>
    <g stroke="null" id="g139"/>
    <g stroke="null" id="g141"/>
   </g>
   <polygon stroke="null" fill="#343434" id="polygon232" points="258.0022888183594,163.70495665073395 203.1915740966797,72.76010191440582 201.9940185546875,76.82909452915192 201.9940185546875,194.90835630893707 203.1915740966797,196.10339415073395 "/>
   <polygon stroke="null" fill="#8c8c8c" id="polygon234" points="148.38099670410156,163.70495665073395 203.1915740966797,196.10374510288239 203.1915740966797,138.79170286655426 203.1915740966797,72.76010191440582 "/>
   <polygon stroke="null" fill="#141414" id="polygon240" points="203.1915740966797,138.79208433628082 203.1915740966797,196.10339415073395 258.00152587890625,163.70495665073395 "/>
   <polygon stroke="null" fill="#393939" id="polygon242" points="203.19126892089844,138.79208433628082 148.38131713867188,163.70532286167145 203.19126892089844,196.10339415073395 "/>
  </g>
 </g>
</svg>