<svg width="400" height="400" xmlns="http://www.w3.org/2000/svg">

 <!-- generated by https://loading.io/ -->
 <g>
  <title>background</title>
  <rect fill="none" id="canvas_background" height="402" width="402" y="-1" x="-1"/>
 </g>
 <g>
  <title>Layer 1</title>
  <g stroke="null" id="svg_1" class="ldl-scale">
   <g stroke="null" id="svg_2">
    <path stroke="null" id="svg_3" d="m200.000001,32.499999c-92.543751,0 -167.500001,74.956251 -167.500001,167.500001s74.956251,167.500001 167.500001,167.500001s167.500001,-74.956251 167.500001,-167.500001s-74.956251,-167.500001 -167.500001,-167.500001zm0,240.781252c-40.61875,0 -73.281251,-32.6625 -73.281251,-73.281251s32.6625,-73.281251 73.281251,-73.281251s73.281251,32.6625 73.281251,73.281251s-32.6625,73.281251 -73.281251,73.281251z" fill="rgb(247, 178, 106)"/>
    <path stroke="null" id="svg_4" d="m200.000001,32.499999c-92.543751,0 -167.500001,74.956251 -167.500001,167.500001c0,38.525 12.98125,74.118751 34.75625,102.175001c7.11875,-3.76875 12.14375,-10.8875 12.14375,-19.2625l0,-1.25625c0,-12.14375 10.05,-21.775 22.6125,-21.775l4.1875,0c12.5625,0 22.6125,9.63125 22.6125,21.775l0,20.9375c0,12.14375 10.05,21.775 22.6125,21.775l4.1875,0c12.5625,0 22.6125,-9.63125 22.6125,-21.775s10.05,-21.775 22.6125,-21.775l4.1875,0c12.5625,0 22.6125,9.63125 22.6125,21.775l0,7.5375c0,12.14375 10.05,21.775 22.6125,21.775l4.1875,0c12.5625,0 22.6125,-9.63125 22.6125,-21.775l0,-55.69375c0,-12.14375 10.05,-21.775 22.6125,-21.775l4.1875,0c12.5625,0 22.6125,9.63125 22.6125,21.775l0,10.05c0,10.05 7.11875,18.425 16.75,20.9375c15.075,-25.125 23.45,-54.4375 23.45,-85.425001c0.8375,-92.543751 -74.118751,-167.500001 -166.662501,-167.500001zm0,240.781252c-40.61875,0 -73.281251,-32.6625 -73.281251,-73.281251s32.6625,-73.281251 73.281251,-73.281251s73.281251,32.6625 73.281251,73.281251s-32.6625,73.281251 -73.281251,73.281251z" fill="rgb(225, 92, 100)"/>
   </g>
   <path stroke="rgb(245, 225, 105)" id="svg_5" d="m149.331251,122.53125c2.5125,-7.5375 6.7,-12.98125 14.2375,-13.4" stroke-miterlimit="10" fill="none" stroke-width="2" stroke-linecap="round"/>
   <path stroke="rgb(245, 225, 105)" id="svg_6" d="m295.475002,168.175c5.025,-6.28125 10.46875,-10.46875 18.00625,-8.375" stroke-miterlimit="10" fill="none" stroke-width="2" stroke-linecap="round"/>
   <path stroke="rgb(245, 225, 105)" id="svg_7" d="m109.131251,70.60625c7.11875,3.35 12.14375,7.95625 12.14375,15.49375" stroke-miterlimit="10" fill="none" stroke-width="2" stroke-linecap="round"/>
   <path stroke="rgb(245, 225, 105)" id="svg_8" d="m289.193752,86.51875c-4.60625,6.28125 -10.05,10.46875 -17.5875,9.2125" stroke-miterlimit="10" fill="none" stroke-width="2" stroke-linecap="round"/>
   <path stroke="rgb(245, 225, 105)" id="svg_9" d="m265.743752,112.9c2.09375,7.5375 1.675,14.65625 -4.1875,19.2625" stroke-miterlimit="10" fill="none" stroke-width="2" stroke-linecap="round"/>
   <path stroke="rgb(245, 225, 105)" id="svg_10" d="m73.95625,218.843751c-7.11875,3.35 -13.81875,5.025 -19.68125,0" stroke-miterlimit="10" fill="none" stroke-width="2" stroke-linecap="round"/>
   <path stroke="rgb(172, 189, 129)" id="svg_11" d="m291.287502,120.01875c7.95625,0.8375 14.2375,2.93125 16.75,10.05" stroke-width="2" stroke-miterlimit="10" fill="none" stroke-linecap="round"/>
   <path stroke="rgb(172, 189, 129)" id="svg_12" d="m79.4,193.300001c3.76875,-6.7 8.79375,-11.725 16.33125,-10.8875" stroke-width="2" stroke-miterlimit="10" fill="none" stroke-linecap="round"/>
   <path stroke="rgb(172, 189, 129)" id="svg_13" d="m304.687502,213.400001c-7.95625,-0.41875 -14.2375,-2.5125 -17.16875,-9.63125" stroke-width="2" stroke-miterlimit="10" fill="none" stroke-linecap="round"/>
   <path stroke="rgb(172, 189, 129)" id="svg_14" d="m232.243751,104.525c-6.7,4.1875 -12.98125,6.7 -19.68125,2.5125" stroke-width="2" stroke-miterlimit="10" fill="none" stroke-linecap="round"/>
   <path stroke="rgb(172, 189, 129)" id="svg_15" d="m162.312501,295.475001c-6.7,-4.1875 -11.30625,-9.2125 -10.46875,-16.75" stroke-width="2" stroke-miterlimit="10" fill="none" stroke-linecap="round"/>
   <path stroke="rgb(172, 189, 129)" id="svg_16" d="m169.012501,70.60625c-7.5375,-1.675 -13.81875,-4.60625 -15.49375,-12.14375" stroke-width="2" stroke-miterlimit="10" fill="none" stroke-linecap="round"/>
   <path stroke="rgb(160, 200, 215)" id="svg_17" d="m118.762501,237.687501c-7.5375,2.5125 -14.2375,2.5125 -19.68125,-2.93125" stroke-linecap="round" fill="none" stroke-width="2" stroke-miterlimit="10"/>
   <path stroke="rgb(160, 200, 215)" id="svg_18" d="m196.231251,68.93125c7.5375,2.09375 13.4,5.8625 14.65625,13.4" stroke-linecap="round" fill="none" stroke-width="2" stroke-miterlimit="10"/>
   <path stroke="rgb(160, 200, 215)" id="svg_19" d="m332.743752,174.875c6.28125,5.025 10.05,10.46875 7.95625,18.00625" stroke-linecap="round" fill="none" stroke-width="2" stroke-miterlimit="10"/>
   <path stroke="rgb(160, 200, 215)" id="svg_20" d="m258.206252,60.55625c-7.5375,2.5125 -14.2375,3.35 -19.68125,-2.09375" stroke-linecap="round" fill="none" stroke-width="2" stroke-miterlimit="10"/>
   <path stroke="rgb(160, 200, 215)" id="svg_21" d="m105.781251,140.95625c-7.95625,0.41875 -14.65625,-0.8375 -18.425,-7.95625" stroke-linecap="round" fill="none" stroke-width="2" stroke-miterlimit="10"/>
   <path stroke="rgb(160, 200, 215)" id="svg_22" d="m239.362502,287.518751c7.95625,-0.41875 14.65625,0.8375 18.00625,7.5375" stroke-linecap="round" fill="none" stroke-width="2" stroke-miterlimit="10"/>
   <metadata stroke="null" transform="translate(0,-0.00000762939453125) translate(0,7.0000152587890625) translate(-11,0) translate(66,72) translate(-1.25,22.5) translate(-31.25,45) translate(-30,-5) translate(-2.5,-6.25) translate(26.25,53.75) translate(-28.75,15) translate(-18.75,17.5) translate(-20,-106.25) translate(-7.5,-31.25) translate(-22.5,43.75) translate(32.5,20) translate(37.5,2.5) translate(-5,76.25) translate(10,10) scale(3.299999952316284) translate(-10,-10) translate(12.878787994384766,106.8939437866211) scale(0.6212121248245239,0.8219696879386902) translate(-12.878787994384766,-106.8939437866211) translate(20.731706619262695,32.718894958496094) scale(0.7537878751754761) translate(-20.731706619262695,-32.718894958496094) translate(48.535362243652344,53.187599182128906) scale(1.2110552787780762) translate(-48.535362243652344,-53.187599182128906) translate(13.35897159576416,103.38490295410156) scale(1.1742738485336304) translate(-13.35897159576416,-103.38490295410156) translate(2.8440921306610107,94.06002807617188) scale(1.1837456226348877) translate(-2.8440921306610107,-94.06002807617188) translate(0.4805242121219635,97.61772155761719) scale(1.1492537260055542) translate(-0.4805242121219635,-97.61772155761719) translate(-9.616724967956543,83.67610168457031) scale(1.1532467603683472) translate(9.616724967956543,-83.67610168457031) translate(-17.402769088745117,82.42122650146484) scale(1.0360360145568848) translate(17.402769088745117,-82.42122650146484) ">donutdonut,doughnut,sweet roll,cruller,chocolatebybkokl7</metadata>
  </g>
  <g stroke="null" transform="rotate(-9.737438201904297 200.00009155273455,200.00013732910168) " id="svg_33">
   <g stroke="null" transform="matrix(0.9227455253749733,0,0,0.9227455253749733,-1480.7589553491634,-1808.229227969026) " id="svg_26">
    <polygon stroke="null" id="svg_27" points="1821.437744140625,1967.9097343087196 1818.642822265625,1977.4097343087196 1818.642822265625,2253.077825129032 1821.437744140625,2255.867864191532 1949.3997802734375,2180.229924738407 " fill="#343434"/>
    <polygon stroke="null" id="svg_28" points="1821.438720703125,1967.9097343087196 1693.4766845703125,2180.229924738407 1821.438720703125,2255.868840754032 1821.438720703125,2122.067815363407 " fill="#8C8C8C"/>
    <polygon stroke="null" id="svg_29" points="1821.437744140625,2280.096623957157 1819.86279296875,2282.016545832157 1819.86279296875,2380.215520441532 1821.437744140625,2384.816594660282 1949.4757080078125,2204.496526300907 " fill="#3C3C3B"/>
    <polygon stroke="null" id="svg_30" points="1821.438720703125,2384.815129816532 1821.438720703125,2280.095159113407 1693.4766845703125,2204.495061457157 " fill="#8C8C8C"/>
    <polygon stroke="null" id="svg_31" points="1821.437744140625,2255.867620050907 1949.3978271484375,2180.230657160282 1821.437744140625,2122.068547785282 " fill="#141414"/>
    <polygon stroke="null" id="svg_32" points="1693.4775390625,2180.230657160282 1821.4376220703125,2255.867620050907 1821.4376220703125,2122.068791925907 " fill="#393939"/>
   </g>
  </g>
 </g>
</svg>